<svg xmlns="http://www.w3.org/2000/svg" xmlns:xlink="http://www.w3.org/1999/xlink" viewBox="0 0 1152 1152" width="1152" height="1152" preserveAspectRatio="xMidYMid meet" style="width: 100%; height: 100%; transform: translate3d(0px, 0px, 0px); content-visibility: visible;"><defs><clipPath id="__lottie_element_49"><rect width="1152" height="1152" x="0" y="0"/></clipPath></defs><g clip-path="url(#__lottie_element_49)"><g style="display: none;" transform="matrix(1,0,0,1,576,530.1000366210938)" opacity="0.06176624999999975"><g opacity="1" transform="matrix(1,0,0,1,0,0)"><path fill="rgb(77,215,131)" fill-opacity="1" d=" M0,-168 C92.71920013427734,-168 168,-92.71920013427734 168,0 C168,92.71920013427734 92.71920013427734,168 0,168 C-92.71920013427734,168 -168,92.71920013427734 -168,0 C-168,-92.71920013427734 -92.71920013427734,-168 0,-168z"/></g><g opacity="1" transform="matrix(1,0,0,1,0,0)"/></g><g transform="matrix(1.100000023841858,0,0,1.100000023841858,338.3999938964844,361)" opacity="1" style="display: block;"><g opacity="1" transform="matrix(1,0,0,1,0,0)"><path fill="rgb(0,0,0)" fill-opacity="1" d=" M49.305999755859375,359.2969970703125 C18.503000259399414,321.3370056152344 0,272.6759948730469 0,219.62100219726562 C0,98.3280029296875 96.70600128173828,0 216,0 C335.29400634765625,0 432,98.3280029296875 432,219.62100219726562 C432,273.0039978027344 413.26800537109375,321.9389953613281 382.12200927734375,360 C377.1440124511719,349.26300048828125 371.1919860839844,339.08599853515625 364.3810119628906,329.5849914550781 C386.52899169921875,298.74200439453125 399.6000061035156,260.7340087890625 399.6000061035156,219.62100219726562 C399.6000061035156,116.52200317382812 317.39898681640625,32.94300079345703 216,32.94300079345703 C114.60099792480469,32.94300079345703 32.400001525878906,116.52200317382812 32.400001525878906,219.62100219726562 C32.400001525878906,260.45599365234375 45.29499816894531,298.2279968261719 67.1709976196289,328.9580078125 C60.32099914550781,338.4309997558594 54.32699966430664,348.5830078125 49.305999755859375,359.2969970703125z"/></g><g opacity="1" transform="matrix(1,0,0,1,0,0)"/></g><g transform="matrix(1,0,0,1,417.6099853515625,747.6099853515625)" opacity="1" style="display: block;"><g opacity="1" transform="matrix(1,0,0,1,0,0)"><path fill="rgb(0,0,0)" fill-opacity="1" d=" M315.3450012207031,33.834999084472656 C273.22100830078125,70.41899871826172 218.2209930419922,92.56300354003906 158.0489959716797,92.56300354003906 C97.51799774169922,92.56300354003906 42.220001220703125,70.15399932861328 0,33.17900085449219 C4.4670000076293945,21.43400001525879 10.208999633789062,10.317999839782715 17.058000564575195,0 C53.68899917602539,35.03900146484375 103.3550033569336,56.5629997253418 158.0489959716797,56.5629997253418 C212.43800354003906,56.5629997253418 261.8550109863281,35.27899932861328 298.4259948730469,0.5849999785423279 C305.2309875488281,10.930999755859375 310.927001953125,22.06999969482422 315.3450012207031,33.834999084472656z"/></g><g opacity="1" transform="matrix(1,0,0,1,0,0)"/></g><g transform="matrix(1,0,0,1,417.9570007324219,672)" opacity="1" style="display: block;"><g opacity="1" transform="matrix(1,0,0,1,0,0)"><path fill="rgb(0,0,0)" fill-opacity="1" d=" M0,108.61599731445312 C24.148000717163086,45.119998931884766 85.58000183105469,0 157.5489959716797,0 C229.76600646972656,0 291.3710021972656,45.430999755859375 315.3450012207031,109.27200317382812 C305.822998046875,117.54199981689453 295.64300537109375,125.0739974975586 284.8940124511719,131.7790069580078 C268.97198486328125,76.46399688720703 217.98599243164062,36 157.5489959716797,36 C97.30500030517578,36 46.45100021362305,76.20500183105469 30.35700035095215,131.2480010986328 C19.636999130249023,124.4990005493164 9.48799991607666,116.92500305175781 0,108.61599731445312z"/></g><g opacity="1" transform="matrix(1,0,0,1,0,0)"/></g><g transform="matrix(1,0,0,1,456.0050048828125,432)" opacity="1" style="display: block;"><g opacity="1" transform="matrix(1,0,0,1,0,0)"/><g opacity="1" transform="matrix(1,0,0,1,0,0)"><path stroke-linecap="butt" stroke-linejoin="miter" fill-opacity="0" stroke-miterlimit="4" stroke="rgb(0,0,0)" stroke-opacity="1" stroke-width="36" d=" M222,120 C222,178.8181610107422 178.8181610107422,222 120,222 C61.181846618652344,222 18,178.8181610107422 18,120 C18,61.181846618652344 61.181846618652344,18 120,18 C178.8181610107422,18 222,61.181846618652344 222,120 C222,120 222,120 222,120z"/></g></g></g></svg>