<svg xmlns="http://www.w3.org/2000/svg" xmlns:xlink="http://www.w3.org/1999/xlink" viewBox="0 0 576 576" width="576" height="576" preserveAspectRatio="xMidYMid meet" style="width: 100%; height: 100%; transform: translate3d(0px, 0px, 0px); content-visibility: visible;"><defs><clipPath id="__lottie_element_2"><rect width="576" height="576" x="0" y="0"/></clipPath><g id="__lottie_element_10"><g transform="matrix(1,0,0,1,240,240)" opacity="1" style="display: block;"><g opacity="1" transform="matrix(1,0,0,1,0,0)"><path fill="rgb(0,10,180)" fill-opacity="1" d=" M0,-192 C105.96479797363281,-192 192,-105.96479797363281 192,0 C192,105.96479797363281 105.96479797363281,192 0,192 C-105.96479797363281,192 -192,105.96479797363281 -192,0 C-192,-105.96479797363281 -105.96479797363281,-192 0,-192z"/></g><g opacity="1" transform="matrix(1,0,0,1,0,0)"/></g></g><mask id="__lottie_element_10_1" mask-type="alpha"><use xmlns:ns1="http://www.w3.org/1999/xlink" ns1:href="#__lottie_element_10"/></mask></defs><g clip-path="url(#__lottie_element_2)"><g mask="url(#__lottie_element_10_1)" style="display: block;"><g transform="matrix(1,0,0,1,472,-96)" opacity="1"><g opacity="1" transform="matrix(1,0,0,1,0,0)"><path fill="rgb(76,214,129)" fill-opacity="1" d=" M0,-84 C46.35960006713867,-84 84,-46.35960006713867 84,0 C84,46.35960006713867 46.35960006713867,84 0,84 C-46.35960006713867,84 -84,46.35960006713867 -84,0 C-84,-46.35960006713867 -46.35960006713867,-84 0,-84z"/></g><g opacity="1" transform="matrix(1,0,0,1,0,0)"/></g></g><g transform="matrix(1,0,0,1,48,48)" opacity="1" style="display: block;"><g opacity="1" transform="matrix(1,0,0,1,-0.125,0.5)"><path fill="rgb(0,0,0)" fill-opacity="1" d=" M192,0 C298.03900146484375,0 384,85.96099853515625 384,192 C384,298.03900146484375 298.03900146484375,384 192,384 C85.96099853515625,384 0,298.03900146484375 0,192 C0,85.96099853515625 85.96099853515625,0 192,0z M192,36 C105.98100280761719,36 36,105.98100280761719 36,192 C36,278.0190124511719 105.98100280761719,348 192,348 C278.0190124511719,348 348,278.0190124511719 348,192 C348,105.98100280761719 278.0190124511719,36 192,36"/></g></g><g transform="matrix(1,0,0,1,387.7720031738281,387.7720031738281)" opacity="1" style="display: block;"><g opacity="1" transform="matrix(1,0,0,1,0,0)"><path fill="rgb(0,0,0)" fill-opacity="1" d=" M25.45599937438965,0 C25.45599937438965,0 144.45599365234375,119 144.45599365234375,119 C144.45599365234375,119 119,144.45599365234375 119,144.45599365234375 C119,144.45599365234375 0,25.45599937438965 0,25.45599937438965 C0,25.45599937438965 25.45599937438965,0 25.45599937438965,0z"/></g><g opacity="1" transform="matrix(1,0,0,1,0,0)"/></g></g></svg>